<?xml version="1.0" standalone="no"?>
<!DOCTYPE svg PUBLIC "-//W3C//DTD SVG 20010904//EN"
 "http://www.w3.org/TR/2001/REC-SVG-20010904/DTD/svg10.dtd">
<svg version="1.0" xmlns="http://www.w3.org/2000/svg"
 width="1280.000000pt" height="1076.000000pt" viewBox="0 0 1280.000000 1076.000000"
 preserveAspectRatio="xMidYMid meet">
<g transform="translate(0.000000,1076.000000) scale(0.100000,-0.100000)"
fill="#000000" stroke="none">
<path d="M4386 10648 c-63 -126 -88 -226 -88 -358 0 -229 86 -423 274 -612
110 -112 106 -122 -25 -57 -98 49 -249 137 -330 192 -32 21 -64 36 -71 34 -7
-3 -22 -38 -35 -78 -111 -366 21 -714 357 -939 45 -30 81 -61 82 -67 0 -7 -3
-13 -6 -13 -13 0 -179 73 -290 127 -65 32 -122 59 -125 61 -13 6 -31 -97 -36
-204 -12 -241 58 -418 233 -591 l94 -93 -14 -62 c-64 -280 12 -550 209 -742
36 -35 65 -68 65 -74 0 -6 -86 -12 -237 -16 -1316 -34 -1966 -60 -2903 -117
-299 -18 -408 -20 -815 -15 -323 4 -509 10 -595 21 -69 8 -126 15 -127 15 -2
0 -3 -20 -3 -44 0 -84 60 -294 119 -416 125 -258 331 -440 600 -531 56 -19
101 -37 101 -42 0 -4 -10 -11 -22 -16 -29 -11 -248 -41 -297 -41 -21 0 -40 -3
-43 -6 -11 -10 44 -168 89 -259 61 -123 121 -204 222 -305 130 -130 281 -215
458 -260 42 -11 79 -23 82 -26 9 -9 -20 -22 -66 -29 -29 -4 -43 -11 -43 -21 0
-9 23 -61 52 -117 119 -232 287 -397 509 -501 127 -60 237 -86 386 -93 67 -3
125 -9 130 -12 5 -3 35 -46 67 -96 215 -332 575 -515 967 -490 l105 6 27 -40
c45 -68 169 -184 261 -245 178 -119 371 -175 609 -176 48 0 87 -4 87 -9 0 -8
-244 -192 -523 -395 -59 -43 -112 -86 -117 -96 -12 -22 -728 -447 -1375 -817
-631 -360 -1139 -634 -1337 -719 -49 -20 -88 -42 -88 -48 0 -23 83 -107 148
-149 117 -77 172 -92 350 -92 83 0 152 -3 152 -8 0 -8 -105 -77 -187 -123 -29
-16 -53 -32 -53 -36 0 -13 103 -89 160 -118 117 -59 191 -75 345 -74 108 1
157 6 213 21 40 12 75 17 77 12 7 -10 -128 -126 -252 -217 -50 -37 -92 -72
-92 -77 -1 -15 95 -72 162 -95 214 -76 460 -28 708 137 37 25 73 43 80 41 7
-2 -56 -75 -146 -166 -87 -89 -156 -164 -154 -166 38 -35 277 -106 354 -106
69 0 249 50 340 94 248 121 447 344 838 937 160 243 446 717 620 1029 69 124
132 234 140 245 14 19 18 18 173 -42 729 -281 1360 -444 2009 -520 212 -25
804 -25 987 0 994 134 1719 624 2328 1572 259 403 477 846 837 1705 256 610
334 791 415 967 76 164 82 173 112 177 17 3 245 14 506 26 261 11 513 23 559
27 l84 6 -24 19 c-176 139 -649 309 -1139 410 l-65 13 -41 115 c-133 375 -333
622 -606 749 -503 236 -1241 25 -2113 -603 -27 -20 -55 -36 -61 -36 -6 0 -27
25 -47 55 -69 104 -239 306 -375 446 -411 425 -1690 1527 -2846 2453 -397 317
-620 511 -852 738 -88 87 -163 158 -166 158 -3 0 -27 -42 -52 -92z"/>
</g>
</svg>
